<svg width="106" height="14" viewBox="0 0 106 14" fill="none" xmlns="http://www.w3.org/2000/svg">
<path d="M2.36914 2.22998H4.23438C4.90495 2.22998 5.48112 2.46761 5.96289 2.94287C6.43815 3.42464 6.67578 4.00081 6.67578 4.67139C6.67578 5.34847 6.43815 5.92464 5.96289 6.3999C5.48112 6.88167 4.90495 7.12256 4.23438 7.12256H2.36914V2.22998ZM5.88477 9.00732C6.77018 8.66878 7.48633 8.10889 8.0332 7.32764C8.5931 6.53337 8.87305 5.64795 8.87305 4.67139C8.87305 3.39535 8.42057 2.3016 7.51562 1.39014C6.60417 0.485189 5.51042 0.0327148 4.23438 0.0327148H1.26562C0.966146 0.0327148 0.708984 0.140137 0.494141 0.35498C0.279297 0.569824 0.171875 0.826986 0.171875 1.12646V11.9077C0.171875 12.2072 0.279297 12.4644 0.494141 12.6792C0.708984 12.894 0.966146 13.0015 1.26562 13.0015C1.57161 13.0015 1.83203 12.894 2.04688 12.6792C2.26172 12.4644 2.36914 12.2072 2.36914 11.9077V9.31982H3.375L5.81641 12.562C6.03776 12.855 6.33073 13.0015 6.69531 13.0015C6.94271 13.0015 7.16406 12.9266 7.35938 12.7769C7.60026 12.5946 7.74023 12.3537 7.7793 12.0542C7.82487 11.7547 7.75651 11.4845 7.57422 11.2437L5.88477 9.00732ZM12.457 7.09326H14.0098C14.6868 7.09326 15.2663 6.85563 15.748 6.38037C16.2233 5.90511 16.4609 5.33219 16.4609 4.66162C16.4609 3.98454 16.2233 3.40511 15.748 2.92334C15.2663 2.44808 14.6868 2.21045 14.0098 2.21045H12.457V7.09326ZM12.457 10.8042H15.709C15.9173 10.8042 16.0964 10.7293 16.2461 10.5796C16.3893 10.4299 16.4609 10.2508 16.4609 10.0425C16.4609 9.83415 16.3893 9.65837 16.2461 9.51514C16.0964 9.3654 15.9173 9.29053 15.709 9.29053H12.457V10.8042ZM11.3633 13.0015C11.0573 13.0015 10.7969 12.894 10.582 12.6792C10.3672 12.4644 10.2598 12.2039 10.2598 11.8979V1.10693C10.2598 0.800944 10.3672 0.540527 10.582 0.325684C10.7969 0.11084 11.0573 0.00341797 11.3633 0.00341797H14.0098C15.2923 0.00341797 16.3893 0.459147 17.3008 1.37061C18.2122 2.28206 18.668 3.37907 18.668 4.66162C18.668 5.82048 18.2839 6.8361 17.5156 7.7085C18.2839 8.30094 18.668 9.07894 18.668 10.0425C18.668 10.8563 18.3783 11.5529 17.7988 12.1323C17.2194 12.7118 16.5228 13.0015 15.709 13.0015H11.3633ZM26.7734 7.12256H28.6387C29.3092 7.12256 29.8854 6.88167 30.3672 6.3999C30.8424 5.92464 31.0801 5.34847 31.0801 4.67139C31.0801 4.00081 30.8424 3.42464 30.3672 2.94287C29.8854 2.46761 29.3092 2.22998 28.6387 2.22998H26.7734V7.12256ZM25.6699 13.0015C25.3704 13.0015 25.1133 12.894 24.8984 12.6792C24.6836 12.4644 24.5762 12.2072 24.5762 11.9077V1.12646C24.5762 0.826986 24.6836 0.569824 24.8984 0.35498C25.1133 0.140137 25.3704 0.0327148 25.6699 0.0327148H28.6387C29.9147 0.0327148 31.0085 0.485189 31.9199 1.39014C32.8249 2.3016 33.2773 3.39535 33.2773 4.67139C33.2773 5.95394 32.8249 7.04769 31.9199 7.95264C31.0085 8.8641 29.9147 9.31982 28.6387 9.31982H26.7734V11.9077C26.7734 12.2072 26.666 12.4644 26.4512 12.6792C26.2363 12.894 25.9759 13.0015 25.6699 13.0015ZM35.9531 13.0015C35.6602 13.0015 35.4128 12.8973 35.2109 12.689C35.0026 12.4871 34.8984 12.2397 34.8984 11.9468V7.59131C34.8984 6.46501 35.2988 5.50146 36.0996 4.70068C36.9004 3.8999 37.8639 3.49951 38.9902 3.49951H39.5859C39.8724 3.49951 40.1198 3.60368 40.3281 3.81201C40.5365 4.01383 40.6406 4.26123 40.6406 4.5542C40.6406 4.84717 40.5365 5.09782 40.3281 5.30615C40.1198 5.50798 39.8724 5.60889 39.5859 5.60889H38.9902C38.4499 5.60889 37.9844 5.8042 37.5938 6.19482C37.2096 6.57894 37.0176 7.04443 37.0176 7.59131V11.9468C37.0176 12.2397 36.9134 12.4871 36.7051 12.689C36.4967 12.8973 36.2461 13.0015 35.9531 13.0015ZM45.543 5.62842C45.0026 5.62842 44.5371 5.82373 44.1465 6.21436C43.7624 6.59847 43.5703 7.06396 43.5703 7.61084V8.91943C43.5703 9.4598 43.7624 9.92529 44.1465 10.3159C44.5371 10.7 45.0026 10.8921 45.543 10.8921H45.5723C46.1191 10.8921 46.5846 10.7 46.9688 10.3159C47.3594 9.92529 47.5547 9.4598 47.5547 8.91943V7.61084C47.5547 7.06396 47.3594 6.59847 46.9688 6.21436C46.5846 5.82373 46.1191 5.62842 45.5723 5.62842H45.543ZM45.543 13.0015C44.4167 13.0015 43.4564 12.6011 42.6621 11.8003C41.8613 11.006 41.4609 10.0457 41.4609 8.91943V7.61084C41.4609 6.48454 41.8613 5.521 42.6621 4.72021C43.4564 3.91943 44.4167 3.51904 45.543 3.51904H45.5723C46.6986 3.51904 47.6621 3.91943 48.4629 4.72021C49.2637 5.521 49.6641 6.48454 49.6641 7.61084V8.91943C49.6641 10.0457 49.2637 11.006 48.4629 11.8003C47.6621 12.6011 46.6986 13.0015 45.5723 13.0015H45.543ZM52.5352 7.72803C52.5352 7.20068 52.724 6.74821 53.1016 6.37061C53.4792 5.993 53.9349 5.8042 54.4688 5.8042H54.498C55.0254 5.8042 55.4779 5.993 55.8555 6.37061C56.2331 6.74821 56.4219 7.20068 56.4219 7.72803V9.00732C56.4219 9.54118 56.2331 9.99691 55.8555 10.3745C55.4779 10.7521 55.0254 10.9409 54.498 10.9409H54.4688C53.9349 10.9409 53.4792 10.7521 53.1016 10.3745C52.724 9.99691 52.5352 9.54118 52.5352 9.00732V7.72803ZM54.4688 3.74365C53.3685 3.74365 52.4277 4.13102 51.6465 4.90576C50.8652 5.68701 50.4746 6.62777 50.4746 7.72803V9.00732C50.4746 10.1076 50.8652 11.0483 51.6465 11.8296C52.4277 12.6108 53.3685 13.0015 54.4688 13.0015H54.498C55.5983 13.0015 56.5391 12.6108 57.3203 11.8296C58.0951 11.0483 58.4824 10.1076 58.4824 9.00732V1.09717C58.4824 0.81071 58.3848 0.569824 58.1895 0.374512C57.9876 0.172689 57.7435 0.0717773 57.457 0.0717773C57.1706 0.0717773 56.9264 0.172689 56.7246 0.374512C56.5228 0.569824 56.4219 0.81071 56.4219 1.09717V4.2417C55.8229 3.90967 55.1816 3.74365 54.498 3.74365H54.4688ZM64.4785 13.0015C63.3522 13.0015 62.3887 12.6011 61.5879 11.8003C60.7871 10.9995 60.3867 10.036 60.3867 8.90967V4.5542C60.3867 4.26123 60.4909 4.01383 60.6992 3.81201C60.901 3.60368 61.1484 3.49951 61.4414 3.49951C61.7344 3.49951 61.985 3.60368 62.1934 3.81201C62.4017 4.01383 62.5059 4.26123 62.5059 4.5542V8.90967C62.5059 9.45003 62.6979 9.91553 63.082 10.3062C63.4727 10.6903 63.9382 10.8823 64.4785 10.8823H64.5078C65.0547 10.8823 65.5234 10.6903 65.9141 10.3062C66.2982 9.91553 66.4902 9.45003 66.4902 8.90967V4.5542C66.4902 4.26123 66.5944 4.01383 66.8027 3.81201C67.0111 3.60368 67.2617 3.49951 67.5547 3.49951C67.8411 3.49951 68.0885 3.60368 68.2969 3.81201C68.5052 4.01383 68.6094 4.26123 68.6094 4.5542V8.90967C68.6094 10.036 68.209 10.9995 67.4082 11.8003C66.6074 12.6011 65.6406 13.0015 64.5078 13.0015H64.4785ZM73.9219 13.0015C72.7956 13.0015 71.8353 12.6011 71.041 11.8003C70.2402 11.006 69.8398 10.0457 69.8398 8.91943V7.61084C69.8398 6.49105 70.2402 5.53076 71.041 4.72998C71.8353 3.9292 72.7956 3.52881 73.9219 3.52881H73.9512C74.8366 3.52881 75.6406 3.79248 76.3633 4.31982C76.5977 4.49561 76.7344 4.72673 76.7734 5.01318C76.819 5.29964 76.7572 5.56006 76.5879 5.79443C76.4121 6.02881 76.181 6.16878 75.8945 6.21436C75.6081 6.25993 75.3477 6.19808 75.1133 6.02881C74.7617 5.76839 74.3743 5.63818 73.9512 5.63818H73.9219C73.375 5.63818 72.9095 5.8335 72.5254 6.22412C72.1413 6.60824 71.9492 7.07048 71.9492 7.61084V8.91943C71.9492 9.46631 72.1413 9.9318 72.5254 10.3159C72.9095 10.7 73.375 10.8921 73.9219 10.8921H73.9512C74.3743 10.8921 74.7617 10.7651 75.1133 10.5112C75.3477 10.342 75.6081 10.2769 75.8945 10.3159C76.181 10.3615 76.4121 10.5015 76.5879 10.7358C76.7572 10.9702 76.819 11.2306 76.7734 11.5171C76.7344 11.8101 76.5977 12.0412 76.3633 12.2104C75.6406 12.7378 74.8366 13.0015 73.9512 13.0015H73.9219ZM81.6758 10.9409C81.1419 10.9409 80.6862 10.7521 80.3086 10.3745C79.931 9.99691 79.7422 9.54118 79.7422 9.00732V5.72607H81.1094C81.3958 5.72607 81.64 5.62516 81.8418 5.42334C82.0436 5.22152 82.1445 4.98063 82.1445 4.70068C82.1445 4.41423 82.0436 4.17008 81.8418 3.96826C81.64 3.76644 81.3958 3.66553 81.1094 3.66553H79.7422V1.09717C79.7422 0.81071 79.6413 0.566569 79.4395 0.364746C79.2376 0.169434 78.9967 0.0717773 78.7168 0.0717773C78.4303 0.0717773 78.1862 0.169434 77.9844 0.364746C77.7826 0.566569 77.6816 0.81071 77.6816 1.09717V9.00732C77.6816 10.1076 78.0723 11.0483 78.8535 11.8296C79.6348 12.6108 80.5755 13.0015 81.6758 13.0015H82.2422C82.5286 13.0015 82.7728 12.9006 82.9746 12.6987C83.1764 12.4969 83.2773 12.2528 83.2773 11.9663C83.2773 11.6864 83.1764 11.4455 82.9746 11.2437C82.7728 11.0418 82.5286 10.9409 82.2422 10.9409H81.6758ZM85.4355 0.081543C85.1296 0.081543 84.8724 0.18571 84.6641 0.394043C84.4492 0.608887 84.3418 0.866048 84.3418 1.16553C84.3418 1.46501 84.4492 1.72217 84.6641 1.93701C84.8724 2.14535 85.1296 2.24951 85.4355 2.24951C85.735 2.24951 85.9889 2.14535 86.1973 1.93701C86.4121 1.72217 86.5195 1.46501 86.5195 1.16553C86.5195 0.866048 86.4121 0.608887 86.1973 0.394043C85.9889 0.18571 85.735 0.081543 85.4355 0.081543ZM85.4355 13.0015C85.1296 13.0015 84.8724 12.894 84.6641 12.6792C84.4492 12.4709 84.3418 12.2137 84.3418 11.9077V4.30029C84.3418 4.00081 84.4492 3.74365 84.6641 3.52881C84.8724 3.31396 85.1296 3.20654 85.4355 3.20654C85.735 3.20654 85.9889 3.31396 86.1973 3.52881C86.4121 3.74365 86.5195 4.00081 86.5195 4.30029V11.9077C86.5195 12.2137 86.4121 12.4709 86.1973 12.6792C85.9889 12.894 85.735 13.0015 85.4355 13.0015ZM92.1836 5.62842C91.6432 5.62842 91.1777 5.82373 90.7871 6.21436C90.403 6.59847 90.2109 7.06396 90.2109 7.61084V8.91943C90.2109 9.4598 90.403 9.92529 90.7871 10.3159C91.1777 10.7 91.6432 10.8921 92.1836 10.8921H92.2129C92.7598 10.8921 93.2253 10.7 93.6094 10.3159C94 9.92529 94.1953 9.4598 94.1953 8.91943V7.61084C94.1953 7.06396 94 6.59847 93.6094 6.21436C93.2253 5.82373 92.7598 5.62842 92.2129 5.62842H92.1836ZM92.1836 13.0015C91.0573 13.0015 90.097 12.6011 89.3027 11.8003C88.502 11.006 88.1016 10.0457 88.1016 8.91943V7.61084C88.1016 6.48454 88.502 5.521 89.3027 4.72021C90.097 3.91943 91.0573 3.51904 92.1836 3.51904H92.2129C93.3392 3.51904 94.3027 3.91943 95.1035 4.72021C95.9043 5.521 96.3047 6.48454 96.3047 7.61084V8.91943C96.3047 10.0457 95.9043 11.006 95.1035 11.8003C94.3027 12.6011 93.3392 13.0015 92.2129 13.0015H92.1836ZM104.928 13.0015C104.635 13.0015 104.384 12.8973 104.176 12.689C103.967 12.4871 103.863 12.2397 103.863 11.9468V7.60107C103.863 7.0542 103.671 6.5887 103.287 6.20459C102.903 5.81396 102.438 5.61865 101.891 5.61865H101.861C101.314 5.61865 100.849 5.81396 100.465 6.20459C100.074 6.5887 99.8789 7.0542 99.8789 7.60107V11.9468C99.8789 12.2397 99.778 12.4871 99.5762 12.689C99.3678 12.8973 99.1172 13.0015 98.8242 13.0015C98.5312 13.0015 98.2839 12.8973 98.082 12.689C97.8737 12.4871 97.7695 12.2397 97.7695 11.9468V7.60107C97.7695 6.47477 98.1699 5.51123 98.9707 4.71045C99.7715 3.90967 100.735 3.50928 101.861 3.50928H101.891C103.017 3.50928 103.98 3.90967 104.781 4.71045C105.582 5.51123 105.982 6.47477 105.982 7.60107V11.9468C105.982 12.2397 105.878 12.4871 105.67 12.689C105.462 12.8973 105.214 13.0015 104.928 13.0015Z" fill="#FF5757" fill-opacity="0.7"/>
<path d="M2.36914 2.22998V2.02998H2.16914V2.22998H2.36914ZM5.96289 2.94287L6.10528 2.8024L6.10335 2.80049L5.96289 2.94287ZM2.36914 7.12256H2.16914V7.32256H2.36914V7.12256ZM5.88477 9.00732L5.81334 8.82051L5.56478 8.91555L5.72518 9.12788L5.88477 9.00732ZM8.0332 7.32764L7.86973 7.2124L7.86936 7.21294L8.0332 7.32764ZM7.51562 1.39014L7.65756 1.24922L7.65654 1.24821L7.51562 1.39014ZM2.36914 9.31982V9.11982H2.16914V9.31982H2.36914ZM3.375 9.31982L3.53477 9.19952L3.47476 9.11982H3.375V9.31982ZM5.81641 12.562L5.65664 12.6823L5.65683 12.6826L5.81641 12.562ZM7.35938 12.7769L7.23868 12.6174L7.23769 12.6181L7.35938 12.7769ZM7.7793 12.0542L7.58153 12.0241L7.58098 12.0283L7.7793 12.0542ZM7.57422 11.2437L7.41464 11.3642L7.41474 11.3643L7.57422 11.2437ZM2.36914 2.42998H4.23438V2.02998H2.36914V2.42998ZM4.23438 2.42998C4.85184 2.42998 5.3777 2.64653 5.82243 3.08525L6.10335 2.80049C5.58454 2.28869 4.95806 2.02998 4.23438 2.02998V2.42998ZM5.82051 3.08333C6.25923 3.52806 6.47578 4.05393 6.47578 4.67139H6.87578C6.87578 3.9477 6.61707 3.32123 6.10527 2.80241L5.82051 3.08333ZM6.47578 4.67139C6.47578 5.29587 6.25891 5.82104 5.82147 6.25848L6.10431 6.54132C6.61739 6.02825 6.87578 5.40107 6.87578 4.67139H6.47578ZM5.82147 6.25848C5.37653 6.70342 4.85096 6.92256 4.23438 6.92256V7.32256C4.95894 7.32256 5.58571 7.05993 6.10431 6.54132L5.82147 6.25848ZM4.23438 6.92256H2.36914V7.32256H4.23438V6.92256ZM2.56914 7.12256V2.22998H2.16914V7.12256H2.56914ZM5.95619 9.19413C6.87917 8.84123 7.62741 8.2561 8.19705 7.44233L7.86936 7.21294C7.34525 7.96167 6.6612 8.49633 5.81334 8.82051L5.95619 9.19413ZM8.19667 7.44287C8.78046 6.6147 9.07305 5.68899 9.07305 4.67139H8.67305C8.67305 5.60691 8.40573 6.45203 7.86974 7.21241L8.19667 7.44287ZM9.07305 4.67139C9.07305 3.34216 8.59942 2.19787 7.65755 1.24922L7.3737 1.53105C8.24172 2.40532 8.67305 3.44853 8.67305 4.67139H9.07305ZM7.65654 1.24821C6.70789 0.306338 5.5636 -0.167285 4.23438 -0.167285V0.232715C5.45723 0.232715 6.50044 0.66404 7.37471 1.53206L7.65654 1.24821ZM4.23438 -0.167285H1.26562V0.232715H4.23438V-0.167285ZM1.26562 -0.167285C0.912243 -0.167285 0.604458 -0.0381794 0.352719 0.213559L0.635562 0.496402C0.813511 0.318453 1.02005 0.232715 1.26562 0.232715V-0.167285ZM0.352719 0.213559C0.100981 0.465297 -0.028125 0.773082 -0.028125 1.12646H0.371875C0.371875 0.880889 0.457613 0.674351 0.635562 0.496402L0.352719 0.213559ZM-0.028125 1.12646V11.9077H0.371875V1.12646H-0.028125ZM-0.028125 11.9077C-0.028125 12.2611 0.100981 12.5689 0.352719 12.8206L0.635562 12.5378C0.457613 12.3598 0.371875 12.1533 0.371875 11.9077H-0.028125ZM0.352719 12.8206C0.604458 13.0724 0.912243 13.2015 1.26562 13.2015V12.8015C1.02005 12.8015 0.813511 12.7157 0.635562 12.5378L0.352719 12.8206ZM1.26562 13.2015C1.62423 13.2015 1.93565 13.0733 2.1883 12.8206L1.90545 12.5378C1.72842 12.7148 1.51899 12.8015 1.26562 12.8015V13.2015ZM2.1883 12.8206C2.44003 12.5689 2.56914 12.2611 2.56914 11.9077H2.16914C2.16914 12.1533 2.0834 12.3598 1.90545 12.5378L2.1883 12.8206ZM2.56914 11.9077V9.31982H2.16914V11.9077H2.56914ZM2.36914 9.51982H3.375V9.11982H2.36914V9.51982ZM3.21523 9.44013L5.65664 12.6823L5.97617 12.4417L3.53477 9.19952L3.21523 9.44013ZM5.65683 12.6826C5.91567 13.0252 6.2675 13.2015 6.69531 13.2015V12.8015C6.39396 12.8015 6.15985 12.6848 5.97598 12.4414L5.65683 12.6826ZM6.69531 13.2015C6.98646 13.2015 7.25063 13.1122 7.48106 12.9356L7.23769 12.6181C7.07749 12.741 6.89896 12.8015 6.69531 12.8015V13.2015ZM7.48006 12.9363C7.76367 12.7217 7.93162 12.4327 7.97762 12.0801L7.58098 12.0283C7.54885 12.2747 7.43685 12.4674 7.23869 12.6174L7.48006 12.9363ZM7.97702 12.0843C8.03069 11.7316 7.94866 11.407 7.7337 11.123L7.41474 11.3643C7.56436 11.5621 7.61905 11.7778 7.58157 12.0241L7.97702 12.0843ZM7.7338 11.1231L6.04435 8.88677L5.72518 9.12788L7.41464 11.3642L7.7338 11.1231ZM12.457 7.09326H12.257V7.29326H12.457V7.09326ZM15.748 6.38037L15.8885 6.52275L15.8895 6.52179L15.748 6.38037ZM15.748 2.92334L15.8904 2.78287L15.8885 2.78096L15.748 2.92334ZM12.457 2.21045V2.01045H12.257V2.21045H12.457ZM12.457 10.8042H12.257V11.0042H12.457V10.8042ZM16.2461 10.5796L16.3876 10.721L16.3906 10.7178L16.2461 10.5796ZM16.2461 9.51514L16.3875 9.37372L16.2461 9.51514ZM12.457 9.29053V9.09053H12.257V9.29053H12.457ZM17.5156 7.7085L17.3655 7.57632L17.2245 7.73652L17.3935 7.86687L17.5156 7.7085ZM12.457 7.29326H14.0098V6.89326H12.457V7.29326ZM14.0098 7.29326C14.7394 7.29326 15.3693 7.03495 15.8885 6.52275L15.6076 6.23799C15.1633 6.67631 14.6343 6.89326 14.0098 6.89326V7.29326ZM15.8895 6.52179C16.4021 6.00912 16.6609 5.38538 16.6609 4.66162H16.2609C16.2609 5.27901 16.0445 5.8011 15.6066 6.23895L15.8895 6.52179ZM16.6609 4.66162C16.6609 3.932 16.4026 3.3021 15.8904 2.78288L15.6057 3.0638C16.044 3.50812 16.2609 4.03708 16.2609 4.66162H16.6609ZM15.8885 2.78096C15.3693 2.26876 14.7394 2.01045 14.0098 2.01045V2.41045C14.6343 2.41045 15.1633 2.6274 15.6076 3.06572L15.8885 2.78096ZM14.0098 2.01045H12.457V2.41045H14.0098V2.01045ZM12.257 2.21045V7.09326H12.657V2.21045H12.257ZM12.457 11.0042H15.709V10.6042H12.457V11.0042ZM15.709 11.0042C15.9713 11.0042 16.201 10.9076 16.3875 10.721L16.1047 10.4382C15.9917 10.5511 15.8633 10.6042 15.709 10.6042V11.0042ZM16.3906 10.7178C16.5697 10.5307 16.6609 10.302 16.6609 10.0425H16.2609C16.2609 10.1996 16.209 10.3291 16.1016 10.4413L16.3906 10.7178ZM16.6609 10.0425C16.6609 9.7828 16.5694 9.55563 16.3875 9.37372L16.1047 9.65656C16.2092 9.7611 16.2609 9.8855 16.2609 10.0425H16.6609ZM16.3875 9.37372C16.201 9.18716 15.9713 9.09053 15.709 9.09053V9.49053C15.8633 9.49053 15.9917 9.54363 16.1047 9.65656L16.3875 9.37372ZM15.709 9.09053H12.457V9.49053H15.709V9.09053ZM12.257 9.29053V10.8042H12.657V9.29053H12.257ZM11.3633 12.8015C11.1099 12.8015 10.9005 12.7148 10.7235 12.5378L10.4406 12.8206C10.6933 13.0733 11.0047 13.2015 11.3633 13.2015V12.8015ZM10.7235 12.5378C10.5464 12.3607 10.4598 12.1513 10.4598 11.8979H10.0598C10.0598 12.2566 10.188 12.568 10.4406 12.8206L10.7235 12.5378ZM10.4598 11.8979V1.10693H10.0598V11.8979H10.4598ZM10.4598 1.10693C10.4598 0.853564 10.5464 0.644143 10.7235 0.467105L10.4406 0.184262C10.188 0.436911 10.0598 0.748324 10.0598 1.10693H10.4598ZM10.7235 0.467105C10.9005 0.290067 11.1099 0.203418 11.3633 0.203418V-0.196582C11.0047 -0.196582 10.6933 -0.068387 10.4406 0.184262L10.7235 0.467105ZM11.3633 0.203418H14.0098V-0.196582H11.3633V0.203418ZM14.0098 0.203418C15.239 0.203418 16.2852 0.637864 17.1594 1.51203L17.4422 1.22918C16.4934 0.280431 15.3457 -0.196582 14.0098 -0.196582V0.203418ZM17.1594 1.51203C18.0335 2.38619 18.468 3.43241 18.468 4.66162H18.868C18.868 3.32573 18.391 2.17794 17.4422 1.22918L17.1594 1.51203ZM18.468 4.66162C18.468 5.77165 18.1017 6.74032 17.3655 7.57632L17.6657 7.84067C18.466 6.93188 18.868 5.8693 18.868 4.66162H18.468ZM17.3935 7.86687C18.113 8.42176 18.468 9.14144 18.468 10.0425H18.868C18.868 9.01643 18.4547 8.18013 17.6378 7.55012L17.3935 7.86687ZM18.468 10.0425C18.468 10.8028 18.1996 11.4487 17.6574 11.9909L17.9403 12.2737C18.5569 11.6571 18.868 10.9097 18.868 10.0425H18.468ZM17.6574 11.9909C17.1152 12.5331 16.4693 12.8015 15.709 12.8015V13.2015C16.5762 13.2015 17.3236 12.8904 17.9403 12.2737L17.6574 11.9909ZM15.709 12.8015H11.3633V13.2015H15.709V12.8015ZM26.7734 7.12256H26.5734V7.32256H26.7734V7.12256ZM30.3672 2.94287L30.5096 2.8024L30.5076 2.80049L30.3672 2.94287ZM26.7734 2.22998V2.02998H26.5734V2.22998H26.7734ZM31.9199 1.39014L32.0619 1.24922L32.0608 1.24821L31.9199 1.39014ZM26.7734 9.31982V9.11982H26.5734V9.31982H26.7734ZM26.7734 7.32256H28.6387V6.92256H26.7734V7.32256ZM28.6387 7.32256C29.3632 7.32256 29.99 7.05993 30.5086 6.54132L30.2258 6.25848C29.7808 6.70342 29.2553 6.92256 28.6387 6.92256V7.32256ZM30.5086 6.54132C31.0217 6.02825 31.2801 5.40107 31.2801 4.67139H30.8801C30.8801 5.29587 30.6632 5.82104 30.2258 6.25848L30.5086 6.54132ZM31.2801 4.67139C31.2801 3.9477 31.0214 3.32123 30.5096 2.80241L30.2248 3.08333C30.6635 3.52806 30.8801 4.05393 30.8801 4.67139H31.2801ZM30.5076 2.80049C29.9888 2.28869 29.3624 2.02998 28.6387 2.02998V2.42998C29.2561 2.42998 29.782 2.64653 30.2267 3.08525L30.5076 2.80049ZM28.6387 2.02998H26.7734V2.42998H28.6387V2.02998ZM26.5734 2.22998V7.12256H26.9734V2.22998H26.5734ZM25.6699 12.8015C25.4243 12.8015 25.2178 12.7157 25.0399 12.5378L24.757 12.8206C25.0088 13.0724 25.3165 13.2015 25.6699 13.2015V12.8015ZM25.0399 12.5378C24.8619 12.3598 24.7762 12.1533 24.7762 11.9077H24.3762C24.3762 12.2611 24.5053 12.5689 24.757 12.8206L25.0399 12.5378ZM24.7762 11.9077V1.12646H24.3762V11.9077H24.7762ZM24.7762 1.12646C24.7762 0.880889 24.8619 0.674351 25.0399 0.496402L24.757 0.213559C24.5053 0.465297 24.3762 0.773082 24.3762 1.12646H24.7762ZM25.0399 0.496402C25.2178 0.318453 25.4243 0.232715 25.6699 0.232715V-0.167285C25.3165 -0.167285 25.0088 -0.0381794 24.757 0.213559L25.0399 0.496402ZM25.6699 0.232715H28.6387V-0.167285H25.6699V0.232715ZM28.6387 0.232715C29.8615 0.232715 30.9047 0.66404 31.779 1.53206L32.0608 1.24821C31.1122 0.306338 29.9679 -0.167285 28.6387 -0.167285V0.232715ZM31.778 1.53105C32.646 2.40532 33.0773 3.44853 33.0773 4.67139H33.4773C33.4773 3.34216 33.0037 2.19787 32.0618 1.24922L31.778 1.53105ZM33.0773 4.67139C33.0773 5.90102 32.6459 6.94387 31.7785 7.81122L32.0613 8.09406C33.0039 7.15151 33.4773 6.00685 33.4773 4.67139H33.0773ZM31.7785 7.81122C30.9041 8.68559 29.8611 9.11982 28.6387 9.11982V9.51982C29.9684 9.51982 31.1128 9.0426 32.0613 8.09406L31.7785 7.81122ZM28.6387 9.11982H26.7734V9.51982H28.6387V9.11982ZM26.5734 9.31982V11.9077H26.9734V9.31982H26.5734ZM26.5734 11.9077C26.5734 12.1533 26.4877 12.3598 26.3097 12.5378L26.5926 12.8206C26.8443 12.5689 26.9734 12.2611 26.9734 11.9077H26.5734ZM26.3097 12.5378C26.1327 12.7148 25.9233 12.8015 25.6699 12.8015V13.2015C26.0285 13.2015 26.3399 13.0733 26.5926 12.8206L26.3097 12.5378ZM35.2109 12.689L35.3547 12.5497L35.3501 12.5453L35.2109 12.689ZM40.3281 3.81201L40.1867 3.95345L40.189 3.95566L40.3281 3.81201ZM40.3281 5.30615L40.4673 5.44982L40.4695 5.44757L40.3281 5.30615ZM37.5938 6.19482L37.4523 6.0534L37.5938 6.19482ZM36.7051 12.689L36.5659 12.5453L36.5637 12.5475L36.7051 12.689ZM35.9531 12.8015C35.7137 12.8015 35.5183 12.7188 35.3546 12.5498L35.0673 12.8281C35.3072 13.0758 35.6066 13.2015 35.9531 13.2015V12.8015ZM35.3501 12.5453C35.1811 12.3816 35.0984 12.1862 35.0984 11.9468H34.6984C34.6984 12.2933 34.8241 12.5927 35.0718 12.8326L35.3501 12.5453ZM35.0984 11.9468V7.59131H34.6984V11.9468H35.0984ZM35.0984 7.59131C35.0984 6.51838 35.4775 5.60561 36.241 4.8421L35.9582 4.55926C35.1201 5.39732 34.6984 6.41164 34.6984 7.59131H35.0984ZM36.241 4.8421C37.0045 4.0786 37.9173 3.69951 38.9902 3.69951V3.29951C37.8106 3.29951 36.7962 3.72121 35.9582 4.55926L36.241 4.8421ZM38.9902 3.69951H39.5859V3.29951H38.9902V3.69951ZM39.5859 3.69951C39.8177 3.69951 40.0147 3.78141 40.1867 3.95343L40.4695 3.67059C40.2249 3.42595 39.9271 3.29951 39.5859 3.29951V3.69951ZM40.189 3.95566C40.358 4.11938 40.4406 4.31476 40.4406 4.5542H40.8406C40.8406 4.2077 40.7149 3.90828 40.4673 3.66836L40.189 3.95566ZM40.4406 4.5542C40.4406 4.79379 40.3578 4.99367 40.1867 5.16473L40.4695 5.44757C40.7151 5.20197 40.8406 4.90055 40.8406 4.5542H40.4406ZM40.189 5.1625C40.0174 5.32869 39.8197 5.40889 39.5859 5.40889V5.80889C39.9251 5.80889 40.2222 5.68726 40.4673 5.4498L40.189 5.1625ZM39.5859 5.40889H38.9902V5.80889H39.5859V5.40889ZM38.9902 5.40889C38.3955 5.40889 37.8795 5.62621 37.4523 6.0534L37.7352 6.33625C38.0892 5.98219 38.5042 5.80889 38.9902 5.80889V5.40889ZM37.4523 6.0534C37.0304 6.47531 36.8176 6.99179 36.8176 7.59131H37.2176C37.2176 7.09708 37.3888 6.68257 37.7352 6.33625L37.4523 6.0534ZM36.8176 7.59131V11.9468H37.2176V7.59131H36.8176ZM36.8176 11.9468C36.8176 12.1862 36.7349 12.3816 36.5659 12.5453L36.8442 12.8326C37.0919 12.5927 37.2176 12.2933 37.2176 11.9468H36.8176ZM36.5637 12.5475C36.3926 12.7186 36.1927 12.8015 35.9531 12.8015V13.2015C36.2995 13.2015 36.6009 13.076 36.8465 12.8304L36.5637 12.5475ZM44.1465 6.21436L44.0051 6.07293L44.1465 6.21436ZM44.1465 10.3159L44.0039 10.4562L44.0063 10.4585L44.1465 10.3159ZM46.9688 6.21436L46.8261 6.3546L46.8285 6.35696L46.9688 6.21436ZM42.6621 11.8003L42.8041 11.6594L42.803 11.6583L42.6621 11.8003ZM42.6621 4.72021L42.8035 4.86164L42.8041 4.86106L42.6621 4.72021ZM48.4629 11.8003L48.322 11.6583L48.3215 11.6589L48.4629 11.8003ZM45.543 5.42842C44.9482 5.42842 44.4323 5.64574 44.0051 6.07293L44.2879 6.35578C44.642 6.00172 45.057 5.82842 45.543 5.82842V5.42842ZM44.0051 6.07293C43.5832 6.49484 43.3703 7.01132 43.3703 7.61084H43.7703C43.7703 7.11661 43.9416 6.7021 44.2879 6.35578L44.0051 6.07293ZM43.3703 7.61084V8.91943H43.7703V7.61084H43.3703ZM43.3703 8.91943C43.3703 9.51307 43.5836 10.0287 44.0039 10.4561L44.2891 10.1757C43.9412 9.82189 43.7703 9.40653 43.7703 8.91943H43.3703ZM44.0063 10.4585C44.4337 10.8788 44.9493 11.0921 45.543 11.0921V10.6921C45.0559 10.6921 44.6405 10.5212 44.2867 10.1733L44.0063 10.4585ZM45.543 11.0921H45.5723V10.6921H45.543V11.0921ZM45.5723 11.0921C46.1718 11.0921 46.6883 10.8792 47.1102 10.4573L46.8273 10.1745C46.481 10.5208 46.0665 10.6921 45.5723 10.6921V11.0921ZM47.1102 10.4573C47.5374 10.0301 47.7547 9.51415 47.7547 8.91943H47.3547C47.3547 9.40544 47.1814 9.82044 46.8273 10.1745L47.1102 10.4573ZM47.7547 8.91943V7.61084H47.3547V8.91943H47.7547ZM47.7547 7.61084C47.7547 7.01023 47.5378 6.49339 47.109 6.07175L46.8285 6.35696C47.181 6.70355 47.3547 7.1177 47.3547 7.61084H47.7547ZM47.1114 6.07413C46.6897 5.64534 46.1729 5.42842 45.5723 5.42842V5.82842C46.0654 5.82842 46.4796 6.00212 46.8261 6.35458L47.1114 6.07413ZM45.5723 5.42842H45.543V5.82842H45.5723V5.42842ZM45.543 12.8015C44.4701 12.8015 43.5609 12.4224 42.8041 11.6594L42.5201 11.9411C43.3519 12.7797 44.3633 13.2015 45.543 13.2015V12.8015ZM42.803 11.6583C42.04 10.9015 41.6609 9.99232 41.6609 8.91943H41.2609C41.2609 10.0991 41.6827 11.1105 42.5213 11.9423L42.803 11.6583ZM41.6609 8.91943V7.61084H41.2609V8.91943H41.6609ZM41.6609 7.61084C41.6609 6.53791 42.04 5.62514 42.8035 4.86164L42.5207 4.57879C41.6826 5.41685 41.2609 6.43117 41.2609 7.61084H41.6609ZM42.8041 4.86106C43.5609 4.09808 44.4701 3.71904 45.543 3.71904V3.31904C44.3633 3.31904 43.3519 3.74079 42.5201 4.57937L42.8041 4.86106ZM45.543 3.71904H45.5723V3.31904H45.543V3.71904ZM45.5723 3.71904C46.6452 3.71904 47.558 4.09813 48.3215 4.86164L48.6043 4.57879C47.7663 3.74074 46.7519 3.31904 45.5723 3.31904V3.71904ZM48.3215 4.86164C49.085 5.62514 49.4641 6.53791 49.4641 7.61084H49.8641C49.8641 6.43117 49.4424 5.41685 48.6043 4.57879L48.3215 4.86164ZM49.4641 7.61084V8.91943H49.8641V7.61084H49.4641ZM49.4641 8.91943C49.4641 9.99232 49.085 10.9015 48.322 11.6583L48.6037 11.9423C49.4423 11.1105 49.8641 10.0991 49.8641 8.91943H49.4641ZM48.3215 11.6589C47.558 12.4224 46.6452 12.8015 45.5723 12.8015V13.2015C46.7519 13.2015 47.7663 12.7798 48.6043 11.9417L48.3215 11.6589ZM45.5723 12.8015H45.543V13.2015H45.5723V12.8015ZM53.1016 10.3745L52.9601 10.5159L53.1016 10.3745ZM51.6465 4.90576L51.5057 4.76375L51.5051 4.76434L51.6465 4.90576ZM57.3203 11.8296L57.4617 11.971L57.4623 11.9704L57.3203 11.8296ZM58.1895 0.374512L58.048 0.515933L58.1895 0.374512ZM56.7246 0.374512L56.8637 0.518251L56.866 0.515933L56.7246 0.374512ZM56.4219 4.2417L56.3249 4.41662L56.6219 4.58124V4.2417H56.4219ZM52.7352 7.72803C52.7352 7.25448 52.9024 6.85266 53.243 6.51203L52.9601 6.22918C52.5456 6.64376 52.3352 7.14689 52.3352 7.72803H52.7352ZM53.243 6.51203C53.5831 6.17192 53.988 6.0042 54.4688 6.0042V5.6042C53.8818 5.6042 53.3752 5.81409 52.9601 6.22918L53.243 6.51203ZM54.4688 6.0042H54.498V5.6042H54.4688V6.0042ZM54.498 6.0042C54.9716 6.0042 55.3734 6.1714 55.714 6.51203L55.9969 6.22918C55.5823 5.81461 55.0792 5.6042 54.498 5.6042V6.0042ZM55.714 6.51203C56.0547 6.85266 56.2219 7.25448 56.2219 7.72803H56.6219C56.6219 7.14689 56.4115 6.64376 55.9969 6.22918L55.714 6.51203ZM56.2219 7.72803V9.00732H56.6219V7.72803H56.2219ZM56.2219 9.00732C56.2219 9.48812 56.0542 9.89298 55.714 10.2331L55.9969 10.5159C56.412 10.1008 56.6219 9.59424 56.6219 9.00732H56.2219ZM55.714 10.2331C55.3734 10.5737 54.9716 10.7409 54.498 10.7409V11.1409C55.0792 11.1409 55.5823 10.9305 55.9969 10.5159L55.714 10.2331ZM54.498 10.7409H54.4688V11.1409H54.498V10.7409ZM54.4688 10.7409C53.988 10.7409 53.5831 10.5732 53.243 10.2331L52.9601 10.5159C53.3752 10.931 53.8818 11.1409 54.4688 11.1409V10.7409ZM53.243 10.2331C52.9029 9.89298 52.7352 9.48812 52.7352 9.00732H52.3352C52.3352 9.59424 52.545 10.1008 52.9601 10.5159L53.243 10.2331ZM52.7352 9.00732V7.72803H52.3352V9.00732H52.7352ZM54.4688 3.54365C53.3157 3.54365 52.3244 3.95186 51.5057 4.76375L51.7873 5.04777C52.5311 4.31018 53.4212 3.94365 54.4688 3.94365V3.54365ZM51.5051 4.76434C50.6865 5.58292 50.2746 6.57448 50.2746 7.72803H50.6746C50.6746 6.68106 51.044 5.7911 51.7879 5.04718L51.5051 4.76434ZM50.2746 7.72803V9.00732H50.6746V7.72803H50.2746ZM50.2746 9.00732C50.2746 10.1609 50.6865 11.1524 51.5051 11.971L51.7879 11.6882C51.044 10.9442 50.6746 10.0543 50.6746 9.00732H50.2746ZM51.5051 11.971C52.3236 12.7896 53.3152 13.2015 54.4688 13.2015V12.8015C53.4218 12.8015 52.5318 12.4321 51.7879 11.6882L51.5051 11.971ZM54.4688 13.2015H54.498V12.8015H54.4688V13.2015ZM54.498 13.2015C55.6516 13.2015 56.6432 12.7896 57.4617 11.971L57.1789 11.6882C56.435 12.4321 55.545 12.8015 54.498 12.8015V13.2015ZM57.4623 11.9704C58.2742 11.1517 58.6824 10.1603 58.6824 9.00732H58.2824C58.2824 10.0548 57.9159 10.945 57.1783 11.6888L57.4623 11.9704ZM58.6824 9.00732V1.09717H58.2824V9.00732H58.6824ZM58.6824 1.09717C58.6824 0.759863 58.5652 0.467435 58.3309 0.23309L58.048 0.515933C58.2043 0.672213 58.2824 0.861556 58.2824 1.09717H58.6824ZM58.3309 0.23309C58.0914 -0.00639319 57.7963 -0.128223 57.457 -0.128223V0.271777C57.6907 0.271777 57.8839 0.351771 58.048 0.515933L58.3309 0.23309ZM57.457 -0.128223C57.1177 -0.128223 56.8227 -0.00639319 56.5832 0.23309L56.866 0.515933C57.0302 0.351771 57.2234 0.271777 57.457 0.271777V-0.128223ZM56.5855 0.230791C56.3439 0.464621 56.2219 0.757748 56.2219 1.09717H56.6219C56.6219 0.863671 56.7017 0.675027 56.8637 0.518232L56.5855 0.230791ZM56.2219 1.09717V4.2417H56.6219V1.09717H56.2219ZM56.5188 4.06678C55.8903 3.71833 55.2156 3.54365 54.498 3.54365V3.94365C55.1477 3.94365 55.7556 4.10101 56.3249 4.41662L56.5188 4.06678ZM54.498 3.54365H54.4688V3.94365H54.498V3.54365ZM60.6992 3.81201L60.8384 3.95573L60.8429 3.95117L60.6992 3.81201ZM62.1934 3.81201L62.0519 3.95345L62.0542 3.95566L62.1934 3.81201ZM63.082 10.3062L62.9394 10.4464L62.9418 10.4488L63.082 10.3062ZM65.9141 10.3062L66.0543 10.4488L66.0567 10.4464L65.9141 10.3062ZM66.8027 3.81201L66.9419 3.95568L66.9442 3.95343L66.8027 3.81201ZM68.2969 3.81201L68.1554 3.95345L68.1577 3.95566L68.2969 3.81201ZM64.4785 12.8015C63.4056 12.8015 62.4928 12.4224 61.7293 11.6589L61.4465 11.9417C62.2845 12.7798 63.2988 13.2015 64.4785 13.2015V12.8015ZM61.7293 11.6589C60.9658 10.8954 60.5867 9.9826 60.5867 8.90967H60.1867C60.1867 10.0893 60.6084 11.1037 61.4465 11.9417L61.7293 11.6589ZM60.5867 8.90967V4.5542H60.1867V8.90967H60.5867ZM60.5867 4.5542C60.5867 4.31476 60.6694 4.11938 60.8384 3.95566L60.5601 3.66836C60.3124 3.90828 60.1867 4.2077 60.1867 4.5542H60.5867ZM60.8429 3.95117C61.0066 3.78216 61.202 3.69951 61.4414 3.69951V3.29951C61.0949 3.29951 60.7955 3.42519 60.5556 3.67285L60.8429 3.95117ZM61.4414 3.69951C61.681 3.69951 61.8809 3.78237 62.0519 3.95343L62.3348 3.67059C62.0892 3.42499 61.7878 3.29951 61.4414 3.29951V3.69951ZM62.0542 3.95566C62.2232 4.11938 62.3059 4.31476 62.3059 4.5542H62.7059C62.7059 4.2077 62.5802 3.90828 62.3325 3.66836L62.0542 3.95566ZM62.3059 4.5542V8.90967H62.7059V4.5542H62.3059ZM62.3059 8.90967C62.3059 9.5033 62.5191 10.0189 62.9394 10.4464L63.2246 10.1659C62.8767 9.81213 62.7059 9.39676 62.7059 8.90967H62.3059ZM62.9418 10.4488C63.3693 10.8691 63.8849 11.0823 64.4785 11.0823V10.6823C63.9914 10.6823 63.5761 10.5114 63.2223 10.1635L62.9418 10.4488ZM64.4785 11.0823H64.5078V10.6823H64.4785V11.0823ZM64.5078 11.0823C65.1073 11.0823 65.6263 10.8696 66.0543 10.4488L65.7738 10.1635C65.4205 10.511 65.0021 10.6823 64.5078 10.6823V11.0823ZM66.0567 10.4464C66.477 10.0189 66.6902 9.5033 66.6902 8.90967H66.2902C66.2902 9.39676 66.1194 9.81213 65.7715 10.1659L66.0567 10.4464ZM66.6902 8.90967V4.5542H66.2902V8.90967H66.6902ZM66.6902 4.5542C66.6902 4.31476 66.7729 4.11938 66.9419 3.95566L66.6636 3.66836C66.4159 3.90828 66.2902 4.2077 66.2902 4.5542H66.6902ZM66.9442 3.95343C67.1152 3.78237 67.3151 3.69951 67.5547 3.69951V3.29951C67.2083 3.29951 66.9069 3.42499 66.6613 3.67059L66.9442 3.95343ZM67.5547 3.69951C67.7864 3.69951 67.9834 3.78141 68.1555 3.95343L68.4383 3.67059C68.1936 3.42595 67.8959 3.29951 67.5547 3.29951V3.69951ZM68.1577 3.95566C68.3267 4.11938 68.4094 4.31476 68.4094 4.5542H68.8094C68.8094 4.2077 68.6837 3.90828 68.436 3.66836L68.1577 3.95566ZM68.4094 4.5542V8.90967H68.8094V4.5542H68.4094ZM68.4094 8.90967C68.4094 9.9826 68.0303 10.8954 67.2668 11.6589L67.5496 11.9417C68.3877 11.1037 68.8094 10.0893 68.8094 8.90967H68.4094ZM67.2668 11.6589C66.5035 12.4221 65.5876 12.8015 64.5078 12.8015V13.2015C65.6936 13.2015 66.7113 12.78 67.5496 11.9417L67.2668 11.6589ZM64.5078 12.8015H64.4785V13.2015H64.5078V12.8015ZM71.041 11.8003L71.183 11.6594L71.1819 11.6583L71.041 11.8003ZM71.041 4.72998L71.1824 4.8714L71.183 4.87082L71.041 4.72998ZM76.3633 4.31982L76.4833 4.15981L76.4812 4.15827L76.3633 4.31982ZM76.7734 5.01318L76.5752 5.04021L76.5759 5.04461L76.7734 5.01318ZM76.5879 5.79443L76.7479 5.91445L76.75 5.91153L76.5879 5.79443ZM75.1133 6.02881L74.9942 6.18953L74.9962 6.19094L75.1133 6.02881ZM72.5254 6.22412L72.6668 6.36555L72.668 6.36435L72.5254 6.22412ZM75.1133 10.5112L74.9962 10.3491L75.1133 10.5112ZM75.8945 10.3159L75.926 10.1184L75.9216 10.1178L75.8945 10.3159ZM76.5879 10.7358L76.7501 10.6187L76.7479 10.6158L76.5879 10.7358ZM76.7734 11.5171L76.5759 11.4857L76.5752 11.4907L76.7734 11.5171ZM76.3633 12.2104L76.2462 12.0483L76.2454 12.0489L76.3633 12.2104ZM73.9219 12.8015C72.849 12.8015 71.9398 12.4224 71.183 11.6594L70.899 11.9411C71.7308 12.7797 72.7422 13.2015 73.9219 13.2015V12.8015ZM71.1819 11.6583C70.4189 10.9015 70.0398 9.99232 70.0398 8.91943H69.6398C69.6398 10.0991 70.0616 11.1105 70.9002 11.9423L71.1819 11.6583ZM70.0398 8.91943V7.61084H69.6398V8.91943H70.0398ZM70.0398 7.61084C70.0398 6.54476 70.4187 5.63515 71.1824 4.8714L70.8996 4.58856C70.0618 5.42637 69.6398 6.43733 69.6398 7.61084H70.0398ZM71.183 4.87082C71.9398 4.10784 72.849 3.72881 73.9219 3.72881V3.32881C72.7422 3.32881 71.7308 3.75056 70.899 4.58914L71.183 4.87082ZM73.9219 3.72881H73.9512V3.32881H73.9219V3.72881ZM73.9512 3.72881C74.7937 3.72881 75.5566 3.97874 76.2454 4.48138L76.4812 4.15827C75.7247 3.60622 74.8794 3.32881 73.9512 3.32881V3.72881ZM76.2433 4.47982C76.4355 4.624 76.5435 4.80753 76.5753 5.04021L76.9716 4.98616C76.9252 4.64592 76.7598 4.36721 76.4833 4.15982L76.2433 4.47982ZM76.5759 5.04461C76.6132 5.27902 76.5639 5.486 76.4258 5.67734L76.75 5.91153C76.9504 5.63412 77.0248 5.32026 76.971 4.98176L76.5759 5.04461ZM76.4279 5.67443C76.2829 5.86772 76.0977 5.97952 75.8631 6.01684L75.926 6.41187C76.2643 6.35805 76.5413 6.1899 76.7479 5.91443L76.4279 5.67443ZM75.8631 6.01684C75.6287 6.05413 75.4217 6.00486 75.2304 5.86667L74.9962 6.19094C75.2736 6.3913 75.5874 6.46572 75.926 6.41187L75.8631 6.01684ZM75.2323 5.8681C74.8476 5.58309 74.4187 5.43818 73.9512 5.43818V5.83818C74.3299 5.83818 74.6759 5.95369 74.9942 6.18952L75.2323 5.8681ZM73.9512 5.43818H73.9219V5.83818H73.9512V5.43818ZM73.9219 5.43818C73.3213 5.43818 72.8044 5.65511 72.3828 6.08389L72.668 6.36435C73.0146 6.01188 73.4287 5.83818 73.9219 5.83818V5.43818ZM72.384 6.0827C71.9626 6.5041 71.7492 7.01712 71.7492 7.61084H72.1492C72.1492 7.12383 72.32 6.71237 72.6668 6.36554L72.384 6.0827ZM71.7492 7.61084V8.91943H72.1492V7.61084H71.7492ZM71.7492 8.91943C71.7492 9.51895 71.9621 10.0354 72.384 10.4573L72.6668 10.1745C72.3205 9.82817 72.1492 9.41367 72.1492 8.91943H71.7492ZM72.384 10.4573C72.8059 10.8792 73.3224 11.0921 73.9219 11.0921V10.6921C73.4276 10.6921 73.0131 10.5208 72.6668 10.1745L72.384 10.4573ZM73.9219 11.0921H73.9512V10.6921H73.9219V11.0921ZM73.9512 11.0921C74.4175 11.0921 74.8456 10.9512 75.2304 10.6734L74.9962 10.3491C74.6778 10.579 74.3312 10.6921 73.9512 10.6921V11.0921ZM75.2304 10.6734C75.4231 10.5342 75.6319 10.482 75.8675 10.5141L75.9216 10.1178C75.5842 10.0718 75.2722 10.1498 74.9962 10.3491L75.2304 10.6734ZM75.8631 10.5134C76.0977 10.5508 76.2829 10.6626 76.4279 10.8558L76.7479 10.6158C76.5413 10.3404 76.2643 10.1722 75.926 10.1184L75.8631 10.5134ZM76.4258 10.8529C76.5639 11.0443 76.6132 11.2513 76.5759 11.4857L76.971 11.5485C77.0248 11.21 76.9504 10.8962 76.75 10.6187L76.4258 10.8529ZM76.5752 11.4907C76.5432 11.7305 76.4349 11.912 76.2462 12.0483L76.4804 12.3726C76.7604 12.1703 76.9255 11.8896 76.9717 11.5435L76.5752 11.4907ZM76.2454 12.0489C75.5566 12.5515 74.7937 12.8015 73.9512 12.8015V13.2015C74.8794 13.2015 75.7247 12.9241 76.4812 12.372L76.2454 12.0489ZM73.9512 12.8015H73.9219V13.2015H73.9512V12.8015ZM80.3086 10.3745L80.1672 10.5159L80.3086 10.3745ZM79.7422 5.72607V5.52607H79.5422V5.72607H79.7422ZM79.7422 3.66553H79.5422V3.86553H79.7422V3.66553ZM79.4395 0.364746L79.5809 0.223306L79.5785 0.221026L79.4395 0.364746ZM77.9844 0.364746L77.8453 0.221006L77.843 0.223325L77.9844 0.364746ZM81.6758 10.7409C81.195 10.7409 80.7901 10.5732 80.45 10.2331L80.1672 10.5159C80.5823 10.931 81.0889 11.1409 81.6758 11.1409V10.7409ZM80.45 10.2331C80.1099 9.89298 79.9422 9.48812 79.9422 9.00732H79.5422C79.5422 9.59424 79.7521 10.1008 80.1672 10.5159L80.45 10.2331ZM79.9422 9.00732V5.72607H79.5422V9.00732H79.9422ZM79.7422 5.92607H81.1094V5.52607H79.7422V5.92607ZM81.1094 5.92607C81.4487 5.92607 81.7437 5.80424 81.9832 5.56476L81.7004 5.28192C81.5362 5.44608 81.343 5.52607 81.1094 5.52607V5.92607ZM81.9832 5.56476C82.2217 5.32625 82.3445 5.03483 82.3445 4.70068H81.9445C81.9445 4.92644 81.8655 5.11678 81.7004 5.28192L81.9832 5.56476ZM82.3445 4.70068C82.3445 4.3614 82.2227 4.06632 81.9832 3.82684L81.7004 4.10968C81.8645 4.27385 81.9445 4.46705 81.9445 4.70068H82.3445ZM81.9832 3.82684C81.7437 3.58736 81.4487 3.46553 81.1094 3.46553V3.86553C81.343 3.86553 81.5362 3.94552 81.7004 4.10968L81.9832 3.82684ZM81.1094 3.46553H79.7422V3.86553H81.1094V3.46553ZM79.9422 3.66553V1.09717H79.5422V3.66553H79.9422ZM79.9422 1.09717C79.9422 0.757884 79.8204 0.462808 79.5809 0.223325L79.298 0.506167C79.4622 0.67033 79.5422 0.863536 79.5422 1.09717H79.9422ZM79.5785 0.221026C79.3395 -0.0102539 79.0488 -0.128223 78.7168 -0.128223V0.271777C78.9446 0.271777 79.1357 0.349121 79.3004 0.508466L79.5785 0.221026ZM78.7168 -0.128223C78.3796 -0.128223 78.0852 -0.0111804 77.8453 0.221026L78.1235 0.508466C78.2872 0.350048 78.4811 0.271777 78.7168 0.271777V-0.128223ZM77.843 0.223325C77.6035 0.462808 77.4816 0.757884 77.4816 1.09717H77.8816C77.8816 0.863536 77.9616 0.67033 78.1258 0.506167L77.843 0.223325ZM77.4816 1.09717V9.00732H77.8816V1.09717H77.4816ZM77.4816 9.00732C77.4816 10.1609 77.8935 11.1524 78.7121 11.971L78.9949 11.6882C78.251 10.9442 77.8816 10.0543 77.8816 9.00732H77.4816ZM78.7121 11.971C79.5307 12.7896 80.5222 13.2015 81.6758 13.2015V12.8015C80.6288 12.8015 79.7389 12.4321 78.9949 11.6882L78.7121 11.971ZM81.6758 13.2015H82.2422V12.8015H81.6758V13.2015ZM82.2422 13.2015C82.5815 13.2015 82.8765 13.0796 83.116 12.8402L82.8332 12.5573C82.669 12.7215 82.4758 12.8015 82.2422 12.8015V13.2015ZM83.116 12.8402C83.3555 12.6007 83.4773 12.3056 83.4773 11.9663H83.0773C83.0773 12.1999 82.9974 12.3931 82.8332 12.5573L83.116 12.8402ZM83.4773 11.9663C83.4773 11.6322 83.3545 11.3407 83.116 11.1022L82.8332 11.3851C82.9983 11.5502 83.0773 11.7406 83.0773 11.9663H83.4773ZM83.116 11.1022C82.8765 10.8627 82.5815 10.7409 82.2422 10.7409V11.1409C82.4758 11.1409 82.669 11.2209 82.8332 11.3851L83.116 11.1022ZM82.2422 10.7409H81.6758V11.1409H82.2422V10.7409ZM84.6641 0.394043L84.5226 0.252622L84.6641 0.394043ZM84.6641 1.93701L84.5226 2.07843L84.6641 1.93701ZM86.1973 1.93701L86.3387 2.07843L86.1973 1.93701ZM86.1973 0.394043L86.3387 0.252622L86.1973 0.394043ZM84.6641 12.6792L84.8077 12.5399L84.8033 12.5356L84.6641 12.6792ZM84.6641 3.52881L84.8055 3.67025L84.8076 3.66804L84.6641 3.52881ZM86.1973 3.52881L86.0537 3.66805L86.0558 3.67023L86.1973 3.52881ZM86.1973 12.6792L86.058 12.5356L86.0537 12.54L86.1973 12.6792ZM85.4355 -0.118457C85.0788 -0.118457 84.7701 0.00519705 84.5226 0.252622L84.8055 0.535464C84.9747 0.366222 85.1803 0.281543 85.4355 0.281543V-0.118457ZM84.5226 0.252622C84.2709 0.50436 84.1418 0.812145 84.1418 1.16553H84.5418C84.5418 0.919951 84.6275 0.713413 84.8055 0.535464L84.5226 0.252622ZM84.1418 1.16553C84.1418 1.51891 84.2709 1.82669 84.5226 2.07843L84.8055 1.79559C84.6275 1.61764 84.5418 1.4111 84.5418 1.16553H84.1418ZM84.5226 2.07843C84.7701 2.32586 85.0788 2.44951 85.4355 2.44951V2.04951C85.1803 2.04951 84.9747 1.96483 84.8055 1.79559L84.5226 2.07843ZM85.4355 2.44951C85.7871 2.44951 86.0922 2.32496 86.3387 2.07843L86.0558 1.79559C85.8857 1.96573 85.683 2.04951 85.4355 2.04951V2.44951ZM86.3387 2.07843C86.5904 1.82669 86.7195 1.51891 86.7195 1.16553H86.3195C86.3195 1.4111 86.2338 1.61764 86.0558 1.79559L86.3387 2.07843ZM86.7195 1.16553C86.7195 0.812145 86.5904 0.50436 86.3387 0.252622L86.0558 0.535464C86.2338 0.713413 86.3195 0.919951 86.3195 1.16553H86.7195ZM86.3387 0.252622C86.0922 0.0060935 85.7871 -0.118457 85.4355 -0.118457V0.281543C85.683 0.281543 85.8857 0.365326 86.0558 0.535464L86.3387 0.252622ZM85.4355 12.8015C85.1823 12.8015 84.9774 12.715 84.8076 12.54L84.5205 12.8184C84.7674 13.0731 85.0768 13.2015 85.4355 13.2015V12.8015ZM84.8033 12.5356C84.6283 12.3659 84.5418 12.161 84.5418 11.9077H84.1418C84.1418 12.2664 84.2702 12.5758 84.5248 12.8228L84.8033 12.5356ZM84.5418 11.9077V4.30029H84.1418V11.9077H84.5418ZM84.5418 4.30029C84.5418 4.05472 84.6275 3.84818 84.8055 3.67023L84.5226 3.38739C84.2709 3.63913 84.1418 3.94691 84.1418 4.30029H84.5418ZM84.8076 3.66804C84.9774 3.49301 85.1823 3.40654 85.4355 3.40654V3.00654C85.0768 3.00654 84.7674 3.13492 84.5205 3.38958L84.8076 3.66804ZM85.4355 3.40654C85.681 3.40654 85.883 3.49207 86.0537 3.66804L86.3408 3.38958C86.0948 3.13586 85.7891 3.00654 85.4355 3.00654V3.40654ZM86.0558 3.67023C86.2338 3.84818 86.3195 4.05472 86.3195 4.30029H86.7195C86.7195 3.94691 86.5904 3.63913 86.3387 3.38739L86.0558 3.67023ZM86.3195 4.30029V11.9077H86.7195V4.30029H86.3195ZM86.3195 11.9077C86.3195 12.161 86.2331 12.3659 86.058 12.5356L86.3365 12.8228C86.5912 12.5758 86.7195 12.2664 86.7195 11.9077H86.3195ZM86.0537 12.54C85.883 12.7159 85.681 12.8015 85.4355 12.8015V13.2015C85.7891 13.2015 86.0948 13.0721 86.3408 12.8184L86.0537 12.54ZM90.7871 6.21436L90.6457 6.07293L90.7871 6.21436ZM90.7871 10.3159L90.6445 10.4562L90.6469 10.4585L90.7871 10.3159ZM93.6094 6.21436L93.4668 6.3546L93.4691 6.35696L93.6094 6.21436ZM89.3027 11.8003L89.4447 11.6594L89.4436 11.6583L89.3027 11.8003ZM89.3027 4.72021L89.4442 4.86164L89.4447 4.86106L89.3027 4.72021ZM95.1035 11.8003L94.9627 11.6583L94.9621 11.6589L95.1035 11.8003ZM92.1836 5.42842C91.5889 5.42842 91.0729 5.64574 90.6457 6.07293L90.9285 6.35578C91.2826 6.00172 91.6976 5.82842 92.1836 5.82842V5.42842ZM90.6457 6.07293C90.2238 6.49484 90.0109 7.01132 90.0109 7.61084H90.4109C90.4109 7.11661 90.5822 6.7021 90.9285 6.35578L90.6457 6.07293ZM90.0109 7.61084V8.91943H90.4109V7.61084H90.0109ZM90.0109 8.91943C90.0109 9.51307 90.2242 10.0287 90.6445 10.4561L90.9297 10.1757C90.5818 9.82189 90.4109 9.40653 90.4109 8.91943H90.0109ZM90.6469 10.4585C91.0743 10.8788 91.59 11.0921 92.1836 11.0921V10.6921C91.6965 10.6921 91.2811 10.5212 90.9273 10.1733L90.6469 10.4585ZM92.1836 11.0921H92.2129V10.6921H92.1836V11.0921ZM92.2129 11.0921C92.8124 11.0921 93.3289 10.8792 93.7508 10.4573L93.468 10.1745C93.1216 10.5208 92.7071 10.6921 92.2129 10.6921V11.0921ZM93.7508 10.4573C94.178 10.0301 94.3953 9.51415 94.3953 8.91943H93.9953C93.9953 9.40544 93.822 9.82044 93.468 10.1745L93.7508 10.4573ZM94.3953 8.91943V7.61084H93.9953V8.91943H94.3953ZM94.3953 7.61084C94.3953 7.01023 94.1784 6.49339 93.7496 6.07175L93.4691 6.35696C93.8216 6.70355 93.9953 7.1177 93.9953 7.61084H94.3953ZM93.752 6.07413C93.3303 5.64534 92.8135 5.42842 92.2129 5.42842V5.82842C92.706 5.82842 93.1202 6.00212 93.4668 6.35458L93.752 6.07413ZM92.2129 5.42842H92.1836V5.82842H92.2129V5.42842ZM92.1836 12.8015C91.1107 12.8015 90.2015 12.4224 89.4447 11.6594L89.1607 11.9411C89.9925 12.7797 91.0039 13.2015 92.1836 13.2015V12.8015ZM89.4436 11.6583C88.6806 10.9015 88.3016 9.99232 88.3016 8.91943H87.9016C87.9016 10.0991 88.3233 11.1105 89.1619 11.9423L89.4436 11.6583ZM88.3016 8.91943V7.61084H87.9016V8.91943H88.3016ZM88.3016 7.61084C88.3016 6.53791 88.6806 5.62514 89.4442 4.86164L89.1613 4.57879C88.3233 5.41685 87.9016 6.43117 87.9016 7.61084H88.3016ZM89.4447 4.86106C90.2015 4.09808 91.1107 3.71904 92.1836 3.71904V3.31904C91.0039 3.31904 89.9925 3.74079 89.1607 4.57937L89.4447 4.86106ZM92.1836 3.71904H92.2129V3.31904H92.1836V3.71904ZM92.2129 3.71904C93.2858 3.71904 94.1986 4.09813 94.9621 4.86164L95.2449 4.57879C94.4069 3.74074 93.3926 3.31904 92.2129 3.31904V3.71904ZM94.9621 4.86164C95.7256 5.62514 96.1047 6.53791 96.1047 7.61084H96.5047C96.5047 6.43117 96.083 5.41685 95.2449 4.57879L94.9621 4.86164ZM96.1047 7.61084V8.91943H96.5047V7.61084H96.1047ZM96.1047 8.91943C96.1047 9.99232 95.7257 10.9015 94.9627 11.6583L95.2444 11.9423C96.0829 11.1105 96.5047 10.0991 96.5047 8.91943H96.1047ZM94.9621 11.6589C94.1986 12.4224 93.2858 12.8015 92.2129 12.8015V13.2015C93.3926 13.2015 94.4069 12.7798 95.2449 11.9417L94.9621 11.6589ZM92.2129 12.8015H92.1836V13.2015H92.2129V12.8015ZM104.176 12.689L104.317 12.5475L104.315 12.5453L104.176 12.689ZM103.287 6.20459L103.145 6.34482L103.146 6.34601L103.287 6.20459ZM100.465 6.20459L100.605 6.34721L100.607 6.34482L100.465 6.20459ZM99.5762 12.689L99.4348 12.5475L99.5762 12.689ZM98.082 12.689L98.2258 12.5497L98.2212 12.5453L98.082 12.689ZM105.67 12.689L105.531 12.5453L105.529 12.5475L105.67 12.689ZM104.928 12.8015C104.688 12.8015 104.488 12.7186 104.317 12.5475L104.034 12.8304C104.28 13.076 104.581 13.2015 104.928 13.2015V12.8015ZM104.315 12.5453C104.146 12.3816 104.063 12.1862 104.063 11.9468H103.663C103.663 12.2933 103.789 12.5927 104.037 12.8326L104.315 12.5453ZM104.063 11.9468V7.60107H103.663V11.9468H104.063ZM104.063 7.60107C104.063 7.00156 103.85 6.48507 103.429 6.06317L103.146 6.34601C103.492 6.69234 103.663 7.10684 103.663 7.60107H104.063ZM103.43 6.06436C103.008 5.63558 102.491 5.41865 101.891 5.41865V5.81865C102.384 5.81865 102.798 5.99235 103.145 6.34482L103.43 6.06436ZM101.891 5.41865H101.861V5.81865H101.891V5.41865ZM101.861 5.41865C101.261 5.41865 100.744 5.63558 100.322 6.06436L100.607 6.34482C100.954 5.99235 101.368 5.81865 101.861 5.81865V5.41865ZM100.325 6.06199C99.8958 6.48362 99.6789 7.00047 99.6789 7.60107H100.079C100.079 7.10793 100.253 6.69378 100.605 6.34719L100.325 6.06199ZM99.6789 7.60107V11.9468H100.079V7.60107H99.6789ZM99.6789 11.9468C99.6789 12.1883 99.598 12.3843 99.4348 12.5475L99.7176 12.8304C99.958 12.59 100.079 12.2912 100.079 11.9468H99.6789ZM99.4348 12.5475C99.2637 12.7186 99.0638 12.8015 98.8242 12.8015V13.2015C99.1706 13.2015 99.472 13.076 99.7176 12.8304L99.4348 12.5475ZM98.8242 12.8015C98.5848 12.8015 98.3894 12.7188 98.2257 12.5498L97.9384 12.8281C98.1783 13.0758 98.4777 13.2015 98.8242 13.2015V12.8015ZM98.2212 12.5453C98.0522 12.3816 97.9695 12.1862 97.9695 11.9468H97.5695C97.5695 12.2933 97.6952 12.5927 97.9429 12.8326L98.2212 12.5453ZM97.9695 11.9468V7.60107H97.5695V11.9468H97.9695ZM97.9695 7.60107C97.9695 6.52814 98.3486 5.61538 99.1121 4.85187L98.8293 4.56903C97.9912 5.40709 97.5695 6.4214 97.5695 7.60107H97.9695ZM99.1121 4.85187C99.8756 4.08837 100.788 3.70928 101.861 3.70928V3.30928C100.682 3.30928 99.6673 3.73097 98.8293 4.56903L99.1121 4.85187ZM101.861 3.70928H101.891V3.30928H101.861V3.70928ZM101.891 3.70928C102.964 3.70928 103.876 4.08837 104.64 4.85187L104.923 4.56903C104.085 3.73097 103.07 3.30928 101.891 3.30928V3.70928ZM104.64 4.85187C105.403 5.61538 105.782 6.52814 105.782 7.60107H106.182C106.182 6.4214 105.761 5.40709 104.923 4.56903L104.64 4.85187ZM105.782 7.60107V11.9468H106.182V7.60107H105.782ZM105.782 11.9468C105.782 12.1862 105.7 12.3816 105.531 12.5453L105.809 12.8326C106.057 12.5927 106.182 12.2933 106.182 11.9468H105.782ZM105.529 12.5475C105.356 12.7196 105.159 12.8015 104.928 12.8015V13.2015C105.269 13.2015 105.567 13.075 105.811 12.8304L105.529 12.5475Z" fill="black"/>
</svg>
